<?xml version="1.0" encoding="UTF-8" standalone="no"?>
<!-- Created with Inkscape (http://www.inkscape.org/) -->

<svg
   xmlns:dc="http://purl.org/dc/elements/1.1/"
   xmlns:cc="http://creativecommons.org/ns#"
   xmlns:rdf="http://www.w3.org/1999/02/22-rdf-syntax-ns#"
   xmlns:svg="http://www.w3.org/2000/svg"
   xmlns="http://www.w3.org/2000/svg"
   xmlns:sodipodi="http://sodipodi.sourceforge.net/DTD/sodipodi-0.dtd"
   xmlns:inkscape="http://www.inkscape.org/namespaces/inkscape"
   width="29.414049mm"
   height="8.2126799mm"
   viewBox="0 0 29.414049 8.2126799"
   version="1.1"
   id="svg4785"
   inkscape:version="0.92.2 (5c3e80d, 2017-08-06)"
   sodipodi:docname="wordmark.svg">
  <defs
     id="defs4779" />
  <sodipodi:namedview
     id="base"
     pagecolor="#ffffff"
     bordercolor="#666666"
     borderopacity="1.0"
     inkscape:pageopacity="0.0"
     inkscape:pageshadow="2"
     inkscape:zoom="2.8"
     inkscape:cx="-67.7146"
     inkscape:cy="-18.760596"
     inkscape:document-units="mm"
     inkscape:current-layer="text5332"
     showgrid="false"
     fit-margin-top="0"
     fit-margin-left="0"
     fit-margin-right="0"
     fit-margin-bottom="0"
     inkscape:window-width="1920"
     inkscape:window-height="1017"
     inkscape:window-x="-8"
     inkscape:window-y="-8"
     inkscape:window-maximized="1" />
  <metadata
     id="metadata4782">
    <rdf:RDF>
      <cc:Work
         rdf:about="">
        <dc:format>image/svg+xml</dc:format>
        <dc:type
           rdf:resource="http://purl.org/dc/dcmitype/StillImage" />
        <dc:title></dc:title>
      </cc:Work>
    </rdf:RDF>
  </metadata>
  <g
     inkscape:label="Layer 1"
     inkscape:groupmode="layer"
     id="layer1"
     transform="translate(-52.255963,-120.38987)">
    <a
       id="a5336">
      <g
         id="g5344">
        <g
           id="g5349">
          <g
             aria-label="Sable™"
             style="font-style:normal;font-variant:normal;font-weight:bold;font-stretch:normal;font-size:10.58333302px;line-height:1.25;font-family:'Fira Sans';-inkscape-font-specification:'Fira Sans Bold';letter-spacing:0px;word-spacing:0px;fill:#55575c;fill-opacity:1;stroke:none;stroke-width:0.26458332"
             id="text5332">
            <path
               d="m 55.208713,120.90846 q 0.8255,0 1.42875,0.23283 0.613833,0.23283 1.11125,0.70908 l -0.804333,0.94192 q -0.751417,-0.61383 -1.608667,-0.61383 -0.455083,0 -0.719667,0.1905 -0.264583,0.17991 -0.264583,0.52916 0,0.24342 0.116417,0.40217 0.116416,0.14817 0.41275,0.28575 0.296333,0.13758 0.889,0.32808 1.121833,0.35984 1.651,0.889 0.529166,0.51859 0.529166,1.48167 0,0.68792 -0.34925,1.21708 -0.34925,0.51859 -1.005416,0.81492 -0.656167,0.28575 -1.55575,0.28575 -0.899584,0 -1.598084,-0.28575 -0.687916,-0.28575 -1.185333,-0.762 l 0.878417,-0.96308 q 0.423333,0.35983 0.867833,0.53975 0.455083,0.17991 0.98425,0.17991 0.53975,0 0.846667,-0.23283 0.3175,-0.24342 0.3175,-0.66675 0,-0.27517 -0.116417,-0.45508 -0.116417,-0.1905 -0.402167,-0.33867 -0.28575,-0.14817 -0.8255,-0.3175 -1.217083,-0.37042 -1.735666,-0.91017 -0.508,-0.53975 -0.508,-1.36525 0,-0.635 0.338667,-1.11125 0.338666,-0.48683 0.941916,-0.74083 0.60325,-0.26458 1.36525,-0.26458 z"
               style="fill:#55575c;fill-opacity:1;stroke-width:0.26458332"
               id="path5351"
               inkscape:connector-curvature="0" />
            <path
               d="m 63.339524,126.79279 q 0,0.3175 0.08467,0.46567 0.09525,0.14816 0.296333,0.22225 l -0.34925,1.09008 q -0.518583,-0.0423 -0.846667,-0.22225 -0.3175,-0.17992 -0.508,-0.58208 -0.550333,0.83608 -1.693333,0.83608 -0.836083,0 -1.3335,-0.48683 -0.497417,-0.48684 -0.497417,-1.27 0,-0.92075 0.677334,-1.40759 0.677333,-0.48683 1.957916,-0.48683 h 0.5715 v -0.24342 q 0,-0.49741 -0.211666,-0.67733 -0.211667,-0.1905 -0.740834,-0.1905 -0.275166,0 -0.66675,0.0847 -0.391583,0.0741 -0.804333,0.21166 l -0.381,-1.10066 q 0.529167,-0.20109 1.0795,-0.30692 0.560917,-0.10583 1.037167,-0.10583 1.2065,0 1.767416,0.49741 0.560917,0.49742 0.560917,1.49225 z m -2.529417,0.61383 q 0.275167,0 0.497417,-0.13758 0.232833,-0.13758 0.391583,-0.39158 v -1.00542 h -0.41275 q -0.5715,0 -0.85725,0.20108 -0.275166,0.20109 -0.275166,0.62442 0,0.33867 0.169333,0.52917 0.179917,0.17991 0.486833,0.17991 z"
               style="fill:#55575c;fill-opacity:1;stroke-width:0.26458332"
               id="path5353"
               inkscape:connector-curvature="0" />
            <path
               d="m 67.835621,122.62296 q 1.026584,0 1.566334,0.78316 0.550333,0.78317 0.550333,2.21192 0,0.86783 -0.275167,1.54517 -0.264583,0.67733 -0.772583,1.05833 -0.497417,0.381 -1.185333,0.381 -0.465667,0 -0.846667,-0.17992 -0.370417,-0.1905 -0.624417,-0.53975 l -0.08467,0.53975 h -1.481667 v -7.85283 l 1.672167,-0.17992 v 2.9845 q 0.243416,-0.33866 0.645583,-0.53975 0.402167,-0.21166 0.836083,-0.21166 z m -0.592666,4.7625 q 0.973666,0 0.973666,-1.76742 0,-0.99483 -0.232833,-1.37583 -0.232833,-0.39159 -0.66675,-0.39159 -0.5715,0 -0.963083,0.65617 v 2.32833 q 0.338666,0.55034 0.889,0.55034 z"
               style="fill:#55575c;fill-opacity:1;stroke-width:0.26458332"
               id="path5355"
               inkscape:connector-curvature="0" />
            <path
               d="m 72.499233,128.60254 q -0.73025,0 -1.143,-0.41275 -0.402166,-0.42333 -0.402166,-1.19592 v -6.42408 l 1.672166,-0.17992 v 6.5405 q 0,0.34925 0.28575,0.34925 0.148167,0 0.275167,-0.0529 l 0.328083,1.18533 q -0.455083,0.1905 -1.016,0.1905 z"
               style="fill:#55575c;fill-opacity:1;stroke-width:0.26458332"
               id="path5357"
               inkscape:connector-curvature="0" />
            <path
               d="m 78.945641,125.50162 q 0,0.34925 -0.03175,0.60325 h -3.471333 q 0.07408,0.70909 0.391583,0.99484 0.3175,0.28575 0.878417,0.28575 0.338666,0 0.656166,-0.11642 0.3175,-0.127 0.687917,-0.381 l 0.687916,0.93133 q -0.98425,0.78317 -2.190749,0.78317 -1.36525,0 -2.0955,-0.80433 -0.73025,-0.80434 -0.73025,-2.159 0,-0.85725 0.306916,-1.53459 0.306917,-0.68791 0.899584,-1.0795 0.592666,-0.40216 1.418166,-0.40216 1.217083,0 1.905,0.762 0.687917,0.762 0.687917,2.11666 z m -1.640417,-0.47625 q -0.02117,-1.29116 -0.910166,-1.29116 -0.433917,0 -0.66675,0.3175 -0.232834,0.30691 -0.296334,1.04775 h 1.87325 z"
               style="fill:#55575c;fill-opacity:1;stroke-width:0.26458332"
               id="path5359"
               inkscape:connector-curvature="0" />
            <path
               d="M 80.301234,126.72364 H 79.99079 v 0.8636 h -0.327378 v -0.8636 h -0.321733 v -0.25682 h 1.001889 z m 1.368778,0.8636 h -0.313267 l -0.01129,-0.4572 -0.0028,-0.11006 q 0,-0.11289 0.02258,-0.29916 h -0.0085 l -0.197555,0.75071 h -0.254 l -0.220133,-0.74789 h -0.0056 q 0.01976,0.21167 0.01693,0.4064 l -0.01129,0.4572 h -0.301978 l 0.03951,-1.12042 h 0.420511 l 0.186267,0.70556 0.163689,-0.70556 h 0.437444 z"
               style="font-size:2.82222223px;fill:#55575c;fill-opacity:1"
               id="path5361"
               inkscape:connector-curvature="0" />
          </g>
        </g>
      </g>
    </a>
  </g>
</svg>
